<?xml version="1.0" encoding="UTF-8"?>
<svg xmlns="http://www.w3.org/2000/svg" width="32" height="32" fill="currentColor" viewBox="0 0 16 16">
  <path d="M8 1c-1.573 0-3.022.289-4.096.777C2.875 2.245 2 2.993 2 4s.875 1.755 1.904 2.223C4.978 6.711 6.427 7 8 7s3.022-.289 4.096-.777C13.125 5.755 14 5.007 14 4s-.875-1.755-1.904-2.223C11.022 1.289 9.573 1 8 1z"/>
  <path d="M2 7v-.839c.457.432 1.004.751 1.49.972C4.722 7.693 6.318 8 8 8s3.278-.307 4.51-.867c.486-.22 1.033-.54 1.49-.972V7c0 .424-.155.802-.411 1.133a4.51 4.51 0 0 0-4.815 1.843A12.31 12.31 0 0 1 8 10c-1.573 0-3.022-.289-4.096-.777C2.875 8.755 2 8.007 2 7zm6.257 3.998L8 11c-1.573 0-3.022-.289-4.096-.777C2.875 9.755 2 9.007 2 8v-.839c.457.432 1.004.751 1.49.972C4.722 8.693 6.318 9 8 9h.003v.002z"/>
  <path d="M2 12v-.839c.457.432 1.004.751 1.49.972C4.722 12.693 6.318 13 8 13s3.278-.307 4.51-.867c.486-.22 1.033-.54 1.49-.972V12c0 .424-.155.802-.411 1.133a4.51 4.51 0 0 0-4.815 1.843A12.31 12.31 0 0 1 8 15c-1.573 0-3.022-.289-4.096-.777C2.875 13.755 2 13.007 2 12z"/>
</svg> 